grf
version=1
nRows=16
nColumns=28
inDegrees=no
endheader
time	ground_force_1_vx	ground_force_1_vy	ground_force_1_vz	ground_force_1_px	ground_force_1_py	ground_force_1_pz	ground_moment_1_mx	ground_moment_1_my	ground_moment_1_mz	ground_force_2_vx	ground_force_2_vy	ground_force_2_vz	ground_force_2_px	ground_force_2_py	ground_force_2_pz	ground_moment_2_mx	ground_moment_2_my	ground_moment_2_mz	ground_force_3_vx	ground_force_3_vy	ground_force_3_vz	ground_force_3_px	ground_force_3_py	ground_force_3_pz	ground_moment_3_mx	ground_moment_3_my	ground_moment_3_mz
      1.35000000	      0.32274444	      0.47136202	      0.95082133	     96.95520233	  -1523.65787734	      2.61777075	      0.06623632	      0.23951140	    131.23935001	      0.32302979	     -2.88634901	      1.93278764	    162.70694182	  -1527.41333588	      0.31398664	      0.06310661	      0.81615388	   -977.97550599	     43.26190391	    -26.58089810	   -638.01741628	    429.23098670	   -231.45907606	      0.26726382	     -0.58736697	      4.31475487	   2101.02736870
      1.36000000	      0.34455552	      0.46942815	      1.45139452	    238.93803484	  -1427.50099539	      2.37062620	      0.02006927	      0.07257073	     39.76485114	      0.46754553	     -2.70120624	      1.82897227	     72.77172342	  -1477.72399740	      0.34965077	      0.07578810	      0.98016281	  -1174.50303787	     40.72694368	    -18.12775022	   -598.01962646	    427.22586192	   -227.50813752	      0.25858946	     -0.47343764	      3.47783829	   1693.49908689
      1.37000000	      0.69807336	      0.60455915	      1.44766260	    213.03949631	  -1439.08157299	      2.40483168	     -0.00403550	     -0.01459240	     -7.99585156	      0.65996785	     -2.70405254	      1.78071036	     86.94812267	  -1453.59368769	      0.37070311	      0.06670880	      0.86274083	  -1033.79940426	     35.85497210	    -10.57986503	   -567.07776831	    426.16394052	   -222.19218470	      0.24737553	     -0.34280236	      2.51820109	   1226.21320622
      1.38000000	      0.68169801	      0.35510002	      1.73673747	    261.24297535	  -1354.88029295	      2.22683638	     -0.00844642	     -0.03054237	    -16.73557622	      0.26115077	     -2.66271622	      2.20524938	    180.87759354	  -1544.11775878	      0.30121875	      0.05952197	      0.76979397	   -922.42365881	     29.51754632	     -4.73587116	   -547.58174773	    425.30907093	   -217.03439471	      0.23654429	     -0.21317389	      1.56595979	    762.52869192
      1.39000000	      0.56815848	      0.45904813	      1.40930734	    238.41567233	  -1384.38430260	      2.29220201	     -0.00356041	     -0.01287448	     -7.05452362	      0.36205750	     -2.88858444	      1.87436345	    146.40054978	  -1444.13998007	      0.38242888	      0.06428624	      0.83140998	   -996.25648491	     22.98412736	     -0.47638215	   -537.44898408	    425.13985242	   -212.66392017	      0.22752160	     -0.03129182	      0.22986744	    111.93168710
      1.40000000	      0.64592867	      0.55278498	      1.10830569	    235.92200170	  -1338.55884205	      2.20982924	     -0.00537428	     -0.01943348	    -10.64850261	      0.59640419	     -3.00210205	      1.84419937	     70.47181211	  -1474.32531654	      0.35233868	      0.07833882	      1.01315114	  -1214.03207644	     18.28578935	      3.60395174	   -534.10047899	    424.68041052	   -206.36288857	      0.21445310	      0.09436920	     -0.69322924	   -337.56114836
      1.41000000	      0.47364076	      0.51226315	      1.18793082	    165.95313674	  -1467.02613648	      2.47959484	      0.01229720	      0.04446682	     24.36542392	      0.44930019	     -2.68365430	      2.40863512	    217.94812510	  -1552.32804196	      0.29675907	      0.05105455	      0.66028532	   -791.20235424	     17.01776135	      7.25742666	   -539.27295647	    424.26916548	   -200.53824717	      0.20237642	      0.16527910	     -1.21412821	   -591.20776632
      1.42000000	      0.70506781	      0.57858080	      0.96410833	    118.65819038	  -1515.71833488	      2.59232764	     -0.02001860	     -0.07238753	    -39.66446813	      0.37997072	     -2.85121381	      1.46922971	     42.21172690	  -1369.12365165	      0.43830949	      0.08118876	      1.05000923	  -1258.19814829	     19.25809770	     10.32538536	   -549.88507165	    422.67993630	   -194.07458572	      0.18865809	      0.19489554	     -1.43168837	   -697.14654302
      1.43000000	      0.50690296	      0.49424790	      1.18288795	    218.76175065	  -1327.79608828	      2.19884801	      0.05090673	      0.18407940	    100.86560215	      0.32916180	     -2.69425760	      1.78591460	     54.10694093	  -1522.48446612	      0.31109223	      0.07539783	      0.97511548	  -1168.45496457	     23.68127837	     13.44384084	   -567.33826434	    421.38769338	   -188.19779477	      0.17622801	      0.13300322	     -0.97703190	   -475.75605893
      1.44000000	      0.41734926	      0.36429277	      1.11444615	    208.94215812	  -1349.69269880	      2.24376519	      0.02087654	      0.07548983	     41.36435993	      0.38485540	     -2.79572631	      2.22758091	    165.30371680	  -1523.78227109	      0.31718446	      0.06029203	      0.77975307	   -934.35737652	     28.67447640	     15.49821903	   -590.11533753	    419.76772483	   -182.26813326	      0.16359774	      0.15658721	     -1.15027821	   -560.11664056
      1.45000000	      0.36302676	      0.51164967	      0.87105342	    138.17819160	  -1500.38362166	      2.55449012	      0.02146377	      0.07761328	     42.52789723	      0.55575840	     -2.69071830	      2.10363056	    140.15616427	  -1483.90343650	      0.34884199	      0.06401497	      0.82790169	   -992.05258443	     32.75860139	     17.21826624	   -617.30396246	    418.30601821	   -175.92033067	      0.15015300	      0.17623221	     -1.29458896	   -630.38733778
      1.46000000	      0.61697074	      0.34937141	      1.57293051	    290.31693508	  -1308.55264515	      2.12761498	      0.01686879	      0.06099777	     33.42349514	      0.41194434	     -3.00289154	      2.22511627	    173.21243070	  -1558.74759469	      0.28851503	      0.06372607	      0.82416528	   -987.57535119	     34.56916632	     18.21292859	   -648.41453865	    417.98463408	   -170.25029931	      0.13841895	      0.24825023	     -1.82362807	   -887.99771911
      1.47000000	      0.47988655	      0.56130925	      1.31694303	    261.50521628	  -1425.51613209	      2.35561421	     -0.00633537	     -0.02290878	    -12.55277687	      0.34653912	     -2.73037341	      1.72703400	    118.05046135	  -1488.47915244	      0.34359696	      0.06699095	      0.86638976	  -1038.17182161	     34.87531602	     21.39239591	   -682.52934505	    417.82575069	   -165.22542061	      0.12805523	      0.37954785	     -2.78813078	  -1357.65281160
      1.48000000	      0.49551020	      0.38735796	      1.28117749	    307.10568381	  -1430.91134432	      2.34244596	     -0.01045944	     -0.03782146	    -20.72412384	      0.49205096	     -2.73032917	      2.30427695	    146.00575946	  -1570.02156429	      0.27735094	      0.06195925	      0.80131510	   -960.19458503	     34.59956302	     25.62283861	   -723.32690717	    417.81700988	   -160.30884804	      0.11795592	      0.58366660	     -4.28757218	  -2087.79102637
      1.49000000	      0.58403783	      0.54236698	      1.20373570	    195.16911320	  -1385.69889954	      2.31642763	      0.03120291	      0.11283014	     61.82483890	      0.60355571	     -2.82504631	      1.64840435	     79.21678008	  -1399.13873902	      0.41564873	      0.06858957	      0.88706470	  -1062.94605247	     35.09445763	     30.20034242	   -766.05713660	    417.68664995	   -155.84790366	      0.10875830	      0.71438424	     -5.24781441	  -2555.37151990
      1.50000000	      0.48443080	      0.43156374	      0.87253457	     44.84569620	  -1423.12245643	      2.46059353	      0.04352907	      0.15740167	     86.24763823	      0.36205273	     -2.88748187	      3.50453438	    320.97151438	  -1652.03130565	      0.22020117	      0.03377600	      0.43682290	   -523.43326604	     36.53110884	     37.21012560	   -808.25490278	    417.00737205	   -151.59382085	      0.09983204	      0.88455506	     -6.49787688	  -3164.07712104
